<?xml version="1.0" encoding="UTF-8" standalone="no"?>
<!-- Created with Inkscape (http://www.inkscape.org/) -->

<svg
   xmlns:dc="http://purl.org/dc/elements/1.1/"
   xmlns:cc="http://creativecommons.org/ns#"
   xmlns:rdf="http://www.w3.org/1999/02/22-rdf-syntax-ns#"
   xmlns:svg="http://www.w3.org/2000/svg"
   xmlns="http://www.w3.org/2000/svg"
   xmlns:sodipodi="http://sodipodi.sourceforge.net/DTD/sodipodi-0.dtd"
   xmlns:inkscape="http://www.inkscape.org/namespaces/inkscape"
   width="128"
   height="128"
   id="svg2"
   version="1.1"
   inkscape:version="0.91pre2 r13516"
   viewBox="0 0 128 128"
   sodipodi:docname="icon.svg"
   inkscape:export-filename="D:\Users\Ricardo\Documents\Visual Studio 2013\Projects\SpaceballApp\SpaceballApp\res\icon.png"
   inkscape:export-xdpi="90"
   inkscape:export-ydpi="90">
  <defs
     id="defs4">
    <filter
       style="color-interpolation-filters:sRGB;"
       inkscape:label="Drop Shadow"
       id="filter4311">
      <feFlood
         flood-opacity="0.498039"
         flood-color="rgb(0,0,0)"
         result="flood"
         id="feFlood4313" />
      <feComposite
         in="flood"
         in2="SourceGraphic"
         operator="in"
         result="composite1"
         id="feComposite4315" />
      <feGaussianBlur
         in="composite1"
         stdDeviation="3"
         result="blur"
         id="feGaussianBlur4317" />
      <feOffset
         dx="6"
         dy="6"
         result="offset"
         id="feOffset4319" />
      <feComposite
         in="SourceGraphic"
         in2="offset"
         operator="over"
         result="composite2"
         id="feComposite4321" />
    </filter>
    <filter
       style="color-interpolation-filters:sRGB;"
       inkscape:label="Drop Shadow"
       id="filter4367">
      <feFlood
         flood-opacity="0.498039"
         flood-color="rgb(0,0,0)"
         result="flood"
         id="feFlood4369" />
      <feComposite
         in="flood"
         in2="SourceGraphic"
         operator="in"
         result="composite1"
         id="feComposite4371" />
      <feGaussianBlur
         in="composite1"
         stdDeviation="3"
         result="blur"
         id="feGaussianBlur4373" />
      <feOffset
         dx="6"
         dy="6"
         result="offset"
         id="feOffset4375" />
      <feComposite
         in="SourceGraphic"
         in2="offset"
         operator="over"
         result="composite2"
         id="feComposite4377" />
    </filter>
  </defs>
  <sodipodi:namedview
     id="base"
     pagecolor="#ffffff"
     bordercolor="#666666"
     borderopacity="1.0"
     inkscape:pageopacity="0.0"
     inkscape:pageshadow="2"
     inkscape:zoom="1.979899"
     inkscape:cx="117.5901"
     inkscape:cy="78.580071"
     inkscape:document-units="px"
     inkscape:current-layer="layer1"
     showgrid="false"
     units="px"
     inkscape:window-width="1920"
     inkscape:window-height="1003"
     inkscape:window-x="-9"
     inkscape:window-y="-9"
     inkscape:window-maximized="1" />
  <metadata
     id="metadata7">
    <rdf:RDF>
      <cc:Work
         rdf:about="">
        <dc:format>image/svg+xml</dc:format>
        <dc:type
           rdf:resource="http://purl.org/dc/dcmitype/StillImage" />
        <dc:title />
      </cc:Work>
    </rdf:RDF>
  </metadata>
  <g
     inkscape:label="Camada 1"
     inkscape:groupmode="layer"
     id="layer1"
     transform="translate(0,-924.36221)">
    <g
       id="g7140"
       inkscape:export-xdpi="90"
       inkscape:export-ydpi="90"
       transform="matrix(0.76920934,0,0,0.76920934,-269.03061,639.3084)"
       style="filter:url(#filter4367)">
      <path
         sodipodi:nodetypes="cssc"
         inkscape:connector-curvature="0"
         id="path7138"
         d="m 494.26572,432.2712 c 0,0 2.5989,-2.29619 4.47,-2.39956 3.38445,-0.18698 10.05387,0.4668 11.10071,-4.99275 l 1.80583,-9.41788"
         style="fill:none;fill-rule:evenodd;stroke:#000000;stroke-width:4;stroke-linecap:butt;stroke-linejoin:round;stroke-miterlimit:4;stroke-dasharray:none;stroke-opacity:1;" />
      <path
         sodipodi:nodetypes="zzzzzzzzzzzz"
         inkscape:connector-curvature="0"
         id="path7010"
         d="m 411.9763,419.56797 c -8.00115,5.22242 -11.69273,11.92237 -14.15107,25.11677 -2.45834,13.1944 -18.13534,30.36398 -29.99742,37.26305 -11.86208,6.89907 -11.60615,17.68695 -0.33231,22.63171 11.27384,4.94476 27.99592,10.7336 39.27323,10.83466 11.27731,0.10106 11.99065,-3.54432 19.99035,-10.20111 7.9997,-6.65679 18.37825,-17.81723 30.4043,-22.29083 12.02605,-4.4736 20.96778,-6.45111 32.93464,-9.82074 11.96686,-3.36963 18.84751,-8.71083 17.88658,-20.92386 -0.96093,-12.21303 -18.26249,-23.6315 -28.23828,-29.92059 -9.97579,-6.2891 -30.00086,-13.29423 -42.55643,-11.49297 -12.55556,1.80125 -17.21244,3.58149 -25.21359,8.80391 z"
         style="fill:#676767;fill-opacity:1;fill-rule:evenodd;stroke:#000000;stroke-width:1px;stroke-linecap:butt;stroke-linejoin:miter;stroke-opacity:1;" />
      <path
         sodipodi:nodetypes="scccss"
         inkscape:connector-curvature="0"
         id="path7019"
         d="m 363.68934,484.94198 c 13.57039,-9.00758 30.01591,-21.9395 40.37167,-26.54949 28.82577,-14.31992 30.56744,11.3499 23.23351,24.49619 -6.86615,14.06559 -16.4373,18.91133 -17.18791,32.4575 -2.66741,0.0681 -5.1976,0.23722 -9.47034,-0.0163 -59.81518,-3.54903 -40.3197,-28.14918 -36.94693,-30.3879 z"
         style="fill:#2b2b2b;fill-opacity:1;fill-rule:evenodd;stroke:#000000;stroke-width:1px;stroke-linecap:butt;stroke-linejoin:miter;stroke-opacity:1;" />
      <path
         sodipodi:nodetypes="ccc"
         inkscape:connector-curvature="0"
         id="path7021"
         d="m 410.12193,515.15044 c 12.88868,-18.28933 32.5013,-36.98012 50.50764,-42.36328 19.33166,-6.46583 32.27605,-2.17543 47.1813,-15.64467"
         style="fill:none;fill-rule:evenodd;stroke:#000000;stroke-width:1px;stroke-linecap:round;stroke-linejoin:miter;stroke-opacity:1;" />
      <path
         inkscape:connector-curvature="0"
         id="path7026"
         d="m 488.20147,461.50349 a 4.6719556,2.3991122 32.056411 0 1 -5.23294,-0.44635 4.6719556,2.3991122 32.056411 0 1 -2.68627,-4.51297 4.6719556,2.3991122 32.056411 0 1 5.23295,0.44634 4.6719556,2.3991122 32.056411 0 1 2.68626,4.51298 z"
         style="fill:#000000;fill-opacity:1;stroke:#000000;stroke-opacity:1;" />
      <path
         inkscape:connector-curvature="0"
         id="path7026-8"
         d="m 490.34805,454.05362 a 4.6719557,2.3991122 32.056411 0 1 -5.23294,-0.44635 4.6719557,2.3991122 32.056411 0 1 -2.68627,-4.51297 4.6719557,2.3991122 32.056411 0 1 5.23295,0.44634 4.6719557,2.3991122 32.056411 0 1 2.68626,4.51298 z"
         style="fill:#000000;fill-opacity:1;stroke:#000000;stroke-opacity:1;" />
      <path
         inkscape:connector-curvature="0"
         id="path7026-4"
         d="m 501.71227,453.54855 a 4.6719557,2.3991122 32.056411 0 1 -5.23294,-0.44635 4.6719557,2.3991122 32.056411 0 1 -2.68627,-4.51297 4.6719557,2.3991122 32.056411 0 1 5.23295,0.44634 4.6719557,2.3991122 32.056411 0 1 2.68626,4.51298 z"
         style="fill:#000000;fill-opacity:1;stroke:#000000;stroke-opacity:1;" />
      <path
         inkscape:connector-curvature="0"
         id="path7026-45"
         d="m 414.72816,432.06084 a 1.8238642,3.5395405 78.758247 0 1 -3.09676,2.48441 1.8238642,3.5395405 78.758247 0 1 -3.84284,-1.08634 1.8238642,3.5395405 78.758247 0 1 3.09675,-2.48442 1.8238642,3.5395405 78.758247 0 1 3.84285,1.08635 z"
         style="fill:#000000;fill-opacity:1;stroke:#000000;stroke-width:0.75891834;stroke-opacity:1;" />
      <path
         inkscape:connector-curvature="0"
         id="path7026-45-6"
         d="m 416.18487,426.70752 a 1.8238642,3.5395406 88.243035 0 1 -3.46382,1.94014 1.8238642,3.5395406 88.243035 0 1 -3.6113,-1.70473 1.8238642,3.5395406 88.243035 0 1 3.46381,-1.94016 1.8238642,3.5395406 88.243035 0 1 3.61131,1.70475 z"
         style="fill:#000000;fill-opacity:1;stroke:#000000;stroke-width:0.75891834;stroke-opacity:1;" />
      <path
         inkscape:transform-center-x="0.071934877"
         inkscape:transform-center-y="1.0101527"
         inkscape:connector-curvature="0"
         id="path7026-45-3"
         d="m 420.63126,422.82491 a 3.4530114,1.8695685 21.720233 0 1 -3.97945,0.36078 3.4530114,1.8695685 21.720233 0 1 -2.38794,-3.02803 3.4530114,1.8695685 21.720233 0 1 3.97944,-0.36079 3.4530114,1.8695685 21.720233 0 1 2.38795,3.02804 z"
         style="fill:#000000;fill-opacity:1;stroke:#000000;stroke-width:0.75891834;stroke-opacity:1;" />
      <path
         inkscape:connector-curvature="0"
         id="path7026-45-8"
         d="m 426.88645,419.43257 a 3.5395406,1.8238642 22.959002 0 1 -3.95772,0.31412 3.5395406,1.8238642 22.959002 0 1 -2.56768,-3.05852 3.5395406,1.8238642 22.959002 0 1 3.95771,-0.31414 3.5395406,1.8238642 22.959002 0 1 2.56769,3.05854 z"
         style="fill:#000000;fill-opacity:1;stroke:#000000;stroke-width:0.75891834;stroke-opacity:1;" />
      <path
         inkscape:transform-center-y="-2.7779195"
         inkscape:transform-center-x="-1.2626907"
         inkscape:connector-curvature="0"
         id="path7026-45-88"
         d="m 429.44665,427.93323 a 1.8238642,3.5395406 86.444979 0 1 -3.40123,2.04787 1.8238642,3.5395406 86.444979 0 1 -3.66301,-1.59058 1.8238642,3.5395406 86.444979 0 1 3.40122,-2.04788 1.8238642,3.5395406 86.444979 0 1 3.66302,1.59059 z"
         style="fill:#000000;fill-opacity:1;stroke:#000000;stroke-width:0.75891834;stroke-opacity:1;" />
      <path
         sodipodi:nodetypes="czc"
         inkscape:connector-curvature="0"
         id="path7104"
         d="m 398.47454,442.91896 c 0,0 31.67065,-8.93171 42.93148,0 11.26084,8.93172 17.97716,17.15434 25.64717,27.92001"
         style="fill:none;fill-rule:evenodd;stroke:#000000;stroke-width:1px;stroke-linecap:round;stroke-linejoin:miter;stroke-opacity:1;" />
      <path
         inkscape:transform-center-y="-1.6180192"
         inkscape:transform-center-x="-2.5871261"
         inkscape:connector-curvature="0"
         id="path7026-45-88-7"
         d="m 434.93069,417.42559 a 3.5395407,1.8238642 29.978681 0 1 -3.96643,-0.1719 3.5395407,1.8238642 29.978681 0 1 -2.17466,-3.3494 3.5395407,1.8238642 29.978681 0 1 3.96643,0.1719 3.5395407,1.8238642 29.978681 0 1 2.17466,3.3494 z"
         style="fill:#000000;fill-opacity:1;stroke:#000000;stroke-width:0.75891834;stroke-opacity:1;" />
      <path
         inkscape:transform-center-y="-1.9768992"
         inkscape:transform-center-x="-2.3244561"
         inkscape:connector-curvature="0"
         id="path7026-45-88-7-7"
         d="m 434.63832,424.19178 a 3.5395408,1.8238642 21.620627 0 1 -3.94929,0.40648 3.5395408,1.8238642 21.620627 0 1 -2.63842,-2.99772 3.5395408,1.8238642 21.620627 0 1 3.94929,-0.40648 3.5395408,1.8238642 21.620627 0 1 2.63842,2.99772 z"
         style="fill:#000000;fill-opacity:1;stroke:#000000;stroke-width:0.75891834;stroke-opacity:1;" />
      <path
         sodipodi:nodetypes="sssssss"
         inkscape:connector-curvature="0"
         id="path7023"
         d="m 486.89352,416.97622 c 0,4.95193 -1.48228,9.57096 -4.04349,13.46926 -4.65252,7.08142 -14.75417,10.50711 -23.98824,9.00663 -10.87893,-1.76776 -17.18254,-4.33966 -22.43229,-12.64607 -1.7634,-2.79014 -2.06391,-6.34304 -2.06391,-9.82982 0,-13.9473 11.75878,-25.25381 26.26397,-25.25381 14.50518,0 26.26396,11.30652 26.26396,25.25381 z"
         style="fill:#000000;fill-opacity:1;stroke:#000000;stroke-opacity:1;" />
    </g>
  </g>
</svg>
